# xmcd
#
# Track frame offsets:
#	150
#	11364
#	21899
#	36136
#	48045
#	58007
#	69884
#	78174
#	89056
#	98273
#	110565
#	123879
#	131336
#	141030
#	150860
#	159414
#	166989
#	176139
#	188671
#	201840
#	216240
#	229648
#	243625
#
# Disc length: 3390 seconds
# Revision: 3
# Processed by: cddbd v1.5.2PL0 Copyright (c) Steve Scherf et al.
# Submitted via: dBpowerAMP V12.0
#
DISCID=1e0d3c17
DTITLE=Various Artist - The Sun Blues Box 10 - Revelations
DYEAR=2013
DGENRE=Blues
TTITLE0=Lost John Hunter and The Blind Bats - John the Revelator
TTITLE1=Sam Phillips - Tree of Life [Advertising Spot]
TTITLE2=Sam Phillips - I Am Bound for Canaan Land
TTITLE3=Lost John Hunter and the Blind Bats - Play the Game Baby
TTITLE4=J.C. Cole - Ida Mae
TTITLE5=J.C. Cole - South Side Blues
TTITLE6=J.C. Cole - Move Me No More
TTITLE7=J.C. Cole - No Right Blues (Deep Blue Sea Blues)
TTITLE8=Willie Carr - Outside Friend
TTITLE9=Four Cruisers, The - Beale St. Shuffle
TTITLE10=Joseph Dobbin and the Four Cruisers - On Account of You
TTITLE11=Joseph Dobbin and the Four Cruisers - Juicehead
TTITLE12=Joseph Dobbin and the Four Cruisers - Vo Baby
TTITLE13=Shy Guy Douglas - Detroit Arrow Blues
TTITLE14=Shy Guy Douglas - Work With Her Boy
TTITLE15=Shy Guy Douglas - Hip Shakin' Mama (Shy Guy's Back In Town)
TTITLE16=Shy Guy Douglas - Oh Baby
TTITLE17=Evangelist Gospel Singers of Alabama - Lord Stop the War
TTITLE18=Evangelist Gospel Singers of Alabama - Leaning on the Lord
TTITLE19=Evangelist Gospel Singers of Alabama - Walk in the Light
TTITLE20=Evangelist Gospel Singers of Alabama - Never Grow Old
TTITLE21=Spiritual Stars - I'll Search Heaven
TTITLE22=Spiritual Stars - Good Religion
EXTD=
EXTT0=
EXTT1=
EXTT2=
EXTT3=
EXTT4=
EXTT5=
EXTT6=
EXTT7=
EXTT8=
EXTT9=
EXTT10=
EXTT11=
EXTT12=
EXTT13=
EXTT14=
EXTT15=
EXTT16=
EXTT17=
EXTT18=
EXTT19=
EXTT20=
EXTT21=
EXTT22=
PLAYORDER=
